<svg xmlns="http://www.w3.org/2000/svg" viewBox="0 0 1200 340" width="1200" height="340" role="img" aria-label="Flat illustration of a developer at a desk with a laptop, a code window showing a Django model, a stack of API servers, a phone running an app and a small analytics chart">
  <defs>
    <linearGradient id="bg" x1="0" y1="0" x2="1" y2="1">
      <stop offset="0" stop-color="#0b1120"/>
      <stop offset="1" stop-color="#161f38"/>
    </linearGradient>
    <linearGradient id="accent" x1="0" y1="0" x2="1" y2="0">
      <stop offset="0" stop-color="#58a6ff"/>
      <stop offset="0.5" stop-color="#a371f7"/>
      <stop offset="1" stop-color="#3fb950"/>
    </linearGradient>
    <pattern id="dots" width="28" height="28" patternUnits="userSpaceOnUse">
      <circle cx="2" cy="2" r="1.5" fill="#ffffff" opacity="0.06"/>
    </pattern>
    <clipPath id="card"><rect x="0" y="0" width="1200" height="340" rx="26"/></clipPath>
  </defs>

  <g clip-path="url(#card)">
    <rect width="1200" height="340" fill="url(#bg)"/>
    <rect width="1200" height="340" fill="url(#dots)"/>
    <circle cx="120" cy="20" r="150" fill="#58a6ff" opacity="0.08"/>
    <circle cx="1100" cy="330" r="170" fill="#a371f7" opacity="0.08"/>
    <rect width="1200" height="7" fill="url(#accent)"/>
  </g>

  <g transform="translate(64,74)">
    <rect width="340" height="198" rx="14" fill="#0d1526" stroke="#2b3a55" stroke-width="1.5"/>
    <path d="M0 14 a14 14 0 0 1 14 -14 h312 a14 14 0 0 1 14 14 v22 h-340z" fill="#16223c"/>
    <circle cx="24" cy="18" r="5" fill="#f85149"/>
    <circle cx="42" cy="18" r="5" fill="#e3b341"/>
    <circle cx="60" cy="18" r="5" fill="#3fb950"/>
    <text x="84" y="23" font-family="ui-monospace,SFMono-Regular,Menlo,monospace" font-size="12" fill="#8b949e">models.py</text>
    <g font-family="ui-monospace,SFMono-Regular,Menlo,monospace" font-size="13.5">
      <text x="20" y="68" fill="#ff7b72">class <tspan fill="#d2a8ff">Post</tspan><tspan fill="#c9d1d9">(models.Model):</tspan></text>
      <text x="36" y="94" fill="#c9d1d9">title = <tspan fill="#79c0ff">CharField</tspan>(...)</text>
      <text x="36" y="120" fill="#c9d1d9">body  = <tspan fill="#79c0ff">TextField</tspan>()</text>
      <text x="20" y="152" fill="#8b949e">@api_view([<tspan fill="#a5d6ff">"GET"</tspan>])</text>
    </g>
    <rect x="20" y="168" width="126" height="8" rx="4" fill="#3fb950" opacity="0.45"/>
    <rect x="154" y="168" width="70" height="8" rx="4" fill="#58a6ff" opacity="0.35"/>
  </g>

  <g transform="translate(470,60)">
    <rect x="-6" y="96" width="26" height="112" rx="13" fill="#1d2740"/>
    <rect x="45" y="84" width="18" height="22" rx="6" fill="#e0ae86"/>
    <path d="M14 188 v-32 q0 -58 40 -58 q40 0 40 58 v32z" fill="#6f5cff"/>
    <circle cx="54" cy="64" r="27" fill="#eec49a"/>
    <path d="M27 58 q1 -31 27 -31 q26 0 27 31 q-7 -13 -27 -13 q-20 0 -27 13z" fill="#2a211c"/>
    <g fill="none" stroke="#1b2740" stroke-width="2.2">
      <circle cx="44" cy="66" r="7"/>
      <circle cx="64" cy="66" r="7"/>
      <path d="M51 66 h6"/>
    </g>
    <path d="M47 80 q7 6 14 0" fill="none" stroke="#c98f63" stroke-width="2.4" stroke-linecap="round"/>
    <path d="M90 134 q40 26 52 66" fill="none" stroke="#6f5cff" stroke-width="15" stroke-linecap="round"/>
    <circle cx="144" cy="202" r="9" fill="#eec49a"/>
    <g transform="translate(150,128)">
      <rect width="128" height="80" rx="8" fill="#0f1729" stroke="#31415f" stroke-width="1.5"/>
      <rect x="12" y="14" width="70" height="7" rx="3.5" fill="#58a6ff" opacity="0.8"/>
      <rect x="12" y="30" width="94" height="7" rx="3.5" fill="#8b949e" opacity="0.55"/>
      <rect x="12" y="46" width="52" height="7" rx="3.5" fill="#3fb950" opacity="0.7"/>
      <rect x="12" y="62" width="80" height="7" rx="3.5" fill="#8b949e" opacity="0.35"/>
      <path d="M-16 80 h160 l16 14 h-192z" fill="#31415f"/>
    </g>
    <rect x="104" y="222" width="300" height="13" rx="6" fill="#25324e"/>
    <rect x="130" y="235" width="11" height="45" rx="4" fill="#1d2740"/>
    <rect x="366" y="235" width="11" height="45" rx="4" fill="#1d2740"/>
    <g transform="translate(330,190)">
      <rect width="24" height="30" rx="5" fill="#f0883e"/>
      <path d="M24 8 q11 0 11 8 t-11 8" fill="none" stroke="#f0883e" stroke-width="4"/>
      <rect x="3" y="-7" width="18" height="6" rx="3" fill="#ffd8a8" opacity="0.75"/>
    </g>
  </g>

  <g transform="translate(880,74)">
    <rect width="132" height="100" rx="12" fill="#0d1526" stroke="#2b3a55" stroke-width="1.5"/>
    <text x="14" y="26" font-family="ui-monospace,SFMono-Regular,Menlo,monospace" font-size="11" fill="#8b949e">accuracy</text>
    <rect x="16" y="60" width="16" height="24" rx="4" fill="#58a6ff"/>
    <rect x="42" y="46" width="16" height="38" rx="4" fill="#a371f7"/>
    <rect x="68" y="52" width="16" height="32" rx="4" fill="#f0883e"/>
    <rect x="94" y="34" width="16" height="50" rx="4" fill="#3fb950"/>
    <rect x="14" y="86" width="104" height="2" rx="1" fill="#2b3a55"/>
  </g>

  <g transform="translate(872,196)">
    <g fill="#0d1526" stroke="#2b3a55" stroke-width="1.5">
      <rect width="126" height="26" rx="8"/>
      <rect y="32" width="126" height="26" rx="8"/>
      <rect y="64" width="126" height="26" rx="8"/>
    </g>
    <g fill="#3fb950">
      <circle cx="16" cy="13" r="4"/>
      <circle cx="16" cy="45" r="4"/>
      <circle cx="16" cy="77" r="4"/>
    </g>
    <g fill="#8b949e" opacity="0.5">
      <rect x="30" y="10" width="60" height="6" rx="3"/>
      <rect x="30" y="42" width="76" height="6" rx="3"/>
      <rect x="30" y="74" width="48" height="6" rx="3"/>
    </g>
  </g>

  <g transform="translate(1046,82)">
    <rect width="112" height="192" rx="20" fill="#0d1526" stroke="#2b3a55" stroke-width="1.5"/>
    <rect x="42" y="10" width="28" height="5" rx="2.5" fill="#2b3a55"/>
    <rect x="12" y="26" width="88" height="30" rx="8" fill="#58a6ff" opacity="0.18"/>
    <rect x="20" y="37" width="46" height="7" rx="3.5" fill="#58a6ff" opacity="0.8"/>
    <g fill="#8b949e" opacity="0.45">
      <rect x="12" y="68" width="88" height="7" rx="3.5"/>
      <rect x="12" y="84" width="66" height="7" rx="3.5"/>
      <rect x="12" y="106" width="88" height="7" rx="3.5"/>
      <rect x="12" y="122" width="54" height="7" rx="3.5"/>
    </g>
    <circle cx="26" cy="168" r="5" fill="#a371f7"/>
    <g fill="#8b949e" opacity="0.4">
      <circle cx="56" cy="168" r="5"/>
      <circle cx="86" cy="168" r="5"/>
    </g>
  </g>

  <path d="M1002 222 q34 -6 44 -34" fill="none" stroke="#58a6ff" stroke-width="2.5" stroke-dasharray="7 7" opacity="0.75"/>
  <path d="M1049 181 l-11 6 l3 10z" fill="#58a6ff" opacity="0.9"/>

  <text x="416" y="122" font-family="ui-monospace,SFMono-Regular,Menlo,monospace" font-size="34" fill="#58a6ff" opacity="0.28">{ }</text>
  <text x="428" y="304" font-family="ui-monospace,SFMono-Regular,Menlo,monospace" font-size="26" fill="#3fb950" opacity="0.28">&lt;/&gt;</text>
  <g fill="#e3b341" opacity="0.5">
    <path d="M430 216 l4 10 l10 4 l-10 4 l-4 10 l-4 -10 l-10 -4 l10 -4z"/>
    <path d="M1142 44 l3 8 l8 3 l-8 3 l-3 8 l-3 -8 l-8 -3 l8 -3z"/>
  </g>
</svg>
